# xmcd
#
# Track frame offsets:
# 150
# 8928
# 28278
# 37021
# 52985
# 64702
# 77429
# 92445
# 101029
# 115211
# 124729
#
# Disc length: 1882 seconds
#
# Revision: 1
# Processed by: cddbd v1.5.2PL0 Copyright (c) Steve Scherf et al.
# Submitted via: CedeCatalogueitor 2.6.0.6 http://personales.ya.com/cdcatalogueitor
#
DISCID=8707580b
DTITLE=Luis Miguel - Navidades Luis Miguel2006
DYEAR=1900
DGENRE=
TTITLE0=Santa Claus Llego A La Ciudad
TTITLE1=Te Deseo Muy Felices Fiestas
TTITLE2=Frente A La Chimenea
TTITLE3=Blanca Navidad
TTITLE4=Navidad, Navidad
TTITLE5=Estare En Mi Casa Esta Navidad
TTITLE6=Mi Humilde Oracion
TTITLE7=Va A Nevar
TTITLE8=Sonrie
TTITLE9=Llego La Navidad
TTITLE10=Noche De Paz
EXTD=
EXTT0=
EXTT1=
EXTT2=
EXTT3=
EXTT4=
EXTT5=
EXTT6=
EXTT7=
EXTT8=
EXTT9=
EXTT10=
PLAYORDER=
